#Produced by Art of Illusion 2.4, Wed Jan 17 20:56:09 GMT+09:00 2007
mtllib mesh1.mtl
g mesh01
usemtl Untitled_1
v -0.5 0.4 -0.5
v 0.5 0.4 -0.5
v 0.5 0 -0.5
v -0.5 0 -0.5
v 0.5 0 0.5
v 0.5 0.4 0.5
v -0.5 0.4 0.5
v -0.5 0 0.5
v -0.19965 0.5988 0.20011
v -0.19965 0.5988 -0.19919
v 0.19965 0.5988 -0.19919
v 0.19965 0.5988 0.20011
vn -0.63169 0.44928 -0.63175
vn 0.63169 0.44928 -0.63175
vn 0.57735 -0.57735 -0.57735
vn -0.57735 -0.57735 -0.57735
vn 0.57735 -0.57735 0.57735
vn 0.63182 0.44909 0.63176
vn -0.63182 0.44909 0.63176
vn -0.57735 -0.57735 0.57735
vn -0.22191 0.94939 0.22228
vn -0.222 0.94952 -0.22164
vn 0.222 0.94952 -0.22164
vn 0.22191 0.94939 0.22228
vt -0.62568 0.56707
vt 0.12568 0.56707
vt 0.12568 0.16707
vt -0.62568 0.16707
vt -0.12432 0.16707
vt -0.12432 0.56707
vt -0.37568 0.56707
vt -0.37568 0.16707
vt -0.37423 0.76587
vt -0.62423 0.76587
vt 0.12423 0.76587
vt -0.12577 0.76587
f 1/1/1 2/2/2 3/3/3
f 3/3/3 4/4/4 1/1/1
f 5/5/5 6/6/6 7/7/7
f 7/7/7 8/8/8 5/5/5
f 8/8/8 7/7/7 1/1/1
f 1/1/1 4/4/4 8/8/8
f 2/2/2 6/6/6 5/5/5
f 5/5/5 3/3/3 2/2/2
f 3/3/3 5/5/5 8/8/8
f 8/8/8 4/4/4 3/3/3
f 9/9/9 10/10/10 1/1/1
f 1/1/1 7/7/7 9/9/9
f 10/10/10 11/11/11 2/2/2
f 2/2/2 1/1/1 10/10/10
f 11/11/11 12/12/12 6/6/6
f 6/6/6 2/2/2 11/11/11
f 12/12/12 9/9/9 7/7/7
f 7/7/7 6/6/6 12/12/12
f 9/9/9 12/12/12 11/11/11
f 11/11/11 10/10/10 9/9/9
