#Produced by Art of Illusion 2.4, Wed Jan 17 18:19:40 GMT+09:00 2007
mtllib mesh2.mtl
g mesh01
usemtl Game_Tex
v 0.25 0.5 -0.43301
v 0.5 0.5 0
v 0.5 0 0
v 0.25 0 -0.43301
v 0.12125 1 -0.21001
v 0.2425 1 0
v -0.12125 1 -0.21001
v -0.25 0.5 -0.43301
v -0.5 0.5 0
v -0.25 0 -0.43301
v -0.5 0 0
v -0.2425 1 0
v -0.25 0.5 0.43301
v -0.25 0 0.43301
v -0.12125 1 0.21001
v 0.25 0.5 0.43301
v 0.25 0 0.43301
v 0.12125 1 0.21001
v -0.16536 0.36051 -0.45464
v -0.16557 0 -0.45464
v 0.16557 0 -0.45464
v 0.16578 0.36051 -0.45464
v -0.16536 0.36053 -0.49877
v -0.16557 0.00002 -0.49877
v 0.16557 0.00002 -0.49877
v 0.16578 0.36053 -0.49877
vn 0.50578 0.24703 -0.82654
vn 0.9755 0.21999 0
vn 0.79241 -0.60999 0
vn 0.46968 -0.62936 -0.61912
vn 0.31237 0.78083 -0.54104
vn 0.62474 0.78083 0
vn -0.31237 0.78083 -0.54104
vn -0.50576 0.24698 -0.82656
vn -0.9755 0.21999 -0
vn -0.46966 -0.62933 -0.61916
vn -0.79241 -0.60999 0
vn -0.62474 0.78083 -0
vn -0.48775 0.21998 0.84481
vn -0.3962 -0.60999 0.68624
vn -0.31237 0.78083 0.54104
vn 0.48775 0.21998 0.84481
vn 0.3962 -0.60999 0.68624
vn 0.31237 0.78083 0.54104
vn -0.4069 0.34886 -0.84423
vn -0.38402 -0.8738 -0.29834
vn 0.38389 -0.87396 -0.29803
vn 0.40762 0.34833 -0.84411
vn -0.57714 0.57765 -0.57726
vn -0.57756 -0.57705 -0.57744
vn 0.57719 -0.57736 -0.5775
vn 0.57751 0.57734 -0.5772
vt 0.13549 0.58198
vt -0.04559 0.58198
vt -0.04559 0.16532
vt 0.13549 0.16532
vt 0.07725 0.99865
vt -0.08733 0.99865
vt -0.57721 0.99865
vt -0.63547 0.58198
vt -0.45441 0.58198
vt -0.63547 0.16532
vt -0.45441 0.16532
vt -0.41269 0.99865
vt -0.31525 0.58198
vt -0.31525 0.16532
vt -0.30242 0.99865
vt -0.18477 0.58198
vt -0.18477 0.16532
vt -0.19761 0.99865
vt -0.67091 0.46574
vt -0.67083 0.16532
vt 0.17085 0.16532
vt 0.17077 0.46574
vt -0.67959 0.46576
vt -0.67951 0.16533
vt 0.17953 0.16533
vt 0.17945 0.46576
f 1/1/1 2/2/2 3/3/3
f 3/3/3 4/4/4 1/1/1
f 5/5/5 6/6/6 2/2/2
f 2/2/2 1/1/1 5/5/5
f 7/7/7 5/5/5 1/1/1
f 1/1/1 8/8/8 7/7/7
f 9/9/9 8/8/8 10/10/10
f 10/10/10 11/11/11 9/9/9
f 12/12/12 7/7/7 8/8/8
f 8/8/8 9/9/9 12/12/12
f 13/13/13 9/9/9 11/11/11
f 11/11/11 14/14/14 13/13/13
f 15/15/15 12/12/12 9/9/9
f 9/9/9 13/13/13 15/15/15
f 16/16/16 13/13/13 14/14/14
f 14/14/14 17/17/17 16/16/16
f 18/18/18 15/15/15 13/13/13
f 13/13/13 16/16/16 18/18/18
f 2/2/2 16/16/16 17/17/17
f 17/17/17 3/3/3 2/2/2
f 6/6/6 18/18/18 16/16/16
f 16/16/16 2/2/2 6/6/6
f 6/6/6 5/5/5 7/7/7
f 7/7/7 12/12/12 15/15/15
f 15/15/15 18/18/18 6/6/6
f 6/6/6 7/7/7 15/15/15
f 17/17/17 14/14/14 11/11/11
f 11/11/11 10/10/10 4/4/4
f 4/4/4 3/3/3 17/17/17
f 17/17/17 11/11/11 4/4/4
f 19/19/19 20/20/20 10/10/10
f 10/10/10 8/8/8 19/19/19
f 20/20/20 21/21/21 4/4/4
f 4/4/4 10/10/10 20/20/20
f 21/21/21 22/22/22 1/1/1
f 1/1/1 4/4/4 21/21/21
f 22/22/22 19/19/19 8/8/8
f 8/8/8 1/1/1 22/22/22
f 23/23/23 24/24/24 20/20/20
f 20/20/20 19/19/19 23/23/23
f 24/24/24 25/25/25 21/21/21
f 21/21/21 20/20/20 24/24/24
f 25/25/25 26/26/26 22/22/22
f 22/22/22 21/21/21 25/25/25
f 26/26/26 23/23/23 19/19/19
f 19/19/19 22/22/22 26/26/26
f 23/23/23 26/26/26 25/25/25
f 25/25/25 24/24/24 23/23/23
